<?xml version="1.0" encoding="UTF-8"?>
<svg id="_레이어_1" data-name="레이어 1" xmlns="http://www.w3.org/2000/svg" version="1.1" viewBox="0 0 1920 1080">
  <defs>
    <style>
      .cls-1 {
        font-family: Pretendard-Bold-KSCpc-EUC-H, Pretendard;
        font-size: 219.29px;
        font-weight: 700;
      }

      .cls-1, .cls-2 {
        isolation: isolate;
      }

      .cls-1, .cls-3 {
        fill: #fff;
      }

      .cls-3 {
        stroke-width: 0px;
      }
    </style>
  </defs>
  <g id="_레이어_1-2" data-name="레이어 1">
    <g id="_그룹_26" data-name="그룹 26">
      <path id="_패스_1" data-name="패스 1" class="cls-3" d="M1164.03,81.54c-19.28-37.36-68.2-55.53-134.25-55.53-36.62.46-73.08,4.88-108.76,13.16-129.14-73.17-293.15-27.81-366.32,101.33-18.43,32.53-29.87,68.54-33.59,105.75-89.29,81.26-132.87,165.34-104.31,220.71,19.28,37.36,68.2,55.53,134.25,55.53,36.83-.47,73.5-4.93,109.36-13.3,130.54,70.69,293.67,22.17,364.36-108.36,15.87-29.31,26.15-61.32,30.32-94.39,92.41-82.55,138-168.58,108.96-224.9h-.01ZM470.97,439c-2.73-9.67-2.11-19.98,1.74-29.27,9.79-26.07,24.43-50.06,43.14-70.69,3.08-3.65,6.28-7.33,9.59-11.03,10.29,49.19,34.19,94.5,68.99,130.76-14.4,1.77-28.88,2.69-43.39,2.75-47.3-.03-74.31-11.29-80.09-22.49v-.03ZM1052.59,223.55c-9.33-50.06-32.74-96.42-67.49-133.65,14.82-1.86,29.74-2.83,44.67-2.91h0c47.28,0,74.28,11.3,80.04,22.51,2.73,9.67,2.11,19.98-1.74,29.27-9.79,26.07-24.43,50.06-43.14,70.69-3.93,4.69-8.04,9.38-12.35,14.09Z"/>
      <path id="_패스_2" data-name="패스 2" class="cls-3" d="M31.93,5.53h437.65v92.38h-163.53v443.71h-110.57V97.85H31.93V5.53Z"/>
      <path id="_패스_3" data-name="패스 3" class="cls-3" d="M1335.23,541.61h-110.55V5.53h110.55v536.08Z"/>
      <path id="_패스_4" data-name="패스 4" class="cls-3" d="M1424.24,541.61V5.53h190.79c160.52.76,259.72,100.7,258.97,268.05.76,167.33-98.43,268.05-261.98,268.05h-187.77,0ZM1607.48,446.21c102.22,0,155.98-53,155.98-172.64s-53.73-171.87-154.46-172.64h-74.2v345.27h72.68Z"/>
    </g>
  </g>
  <g id="_작품을_만드는_사람들" data-name="작품을 만드는 사람들" class="cls-2">
    <text class="cls-1" transform="translate(49.92 1012.46)"><tspan x="0" y="0">작품을 만드는 사람들</tspan></text>
  </g>
</svg>