<?xml version="1.0" encoding="UTF-8"?>
<svg style="pointer-events: none; display: block; width: 66px; height: 66px;"  xmlns="http://www.w3.org/2000/svg" viewBox="0 0 3000.45 875.27">
  <defs>
    <style>
      .cls-1 {
        fill: #727272;
      }
    </style>
  </defs>
  <g id="_레이어_1-2" data-name="레이어 1">
    <g>
      <path class="cls-1" d="m1843.98,125.89c-31.39-60.85-111.09-90.45-218.67-90.45-53.09,0-112.97,7.22-177.16,21.45C1384.44,20.69,1310.77,0,1232.25,0c-227.03,0-413.68,172.88-435.49,394.18-145.43,132.36-216.42,269.31-169.9,359.5,31.39,60.85,111.09,90.45,218.67,90.45,53.36,0,113.58-7.3,178.14-21.67,62.01,33.68,133.06,52.81,208.58,52.81,223.21,0,407.38-167.11,434.25-383.05,150.52-134.46,224.79-274.59,177.47-366.33ZM715.11,708.17c-6.75-13.09-1.12-35.48,2.84-47.67,7.59-23.36,25.94-62.3,70.27-115.15,5.02-5.99,10.23-11.98,15.62-17.97,17.02,81.65,56.78,154.95,112.37,212.97-24.93,2.96-48.63,4.49-70.68,4.49-77.03,0-121.01-18.42-130.42-36.67Zm947.36-351.01c-15.47-83.24-54.5-158.19-109.92-217.69,25.7-3.12,50.1-4.73,72.77-4.73h.01c77.01,0,120.98,18.42,130.39,36.67,6.75,13.09,1.12,35.49-2.84,47.67-7.59,23.36-25.94,62.3-70.27,115.15-6.41,7.64-13.14,15.28-20.14,22.93Z"/>
      <path class="cls-1" d="m0,2.08h712.86v150.47h-266.4v722.73h-180.06V152.54H0V2.08Z"/>
      <path class="cls-1" d="m2122.85,875.27h-180.06V2.08h180.06v873.19Z"/>
      <path class="cls-1" d="m2267.85,875.27V2.08h310.8c261.46,1.23,423.03,164.03,421.8,436.6,1.23,272.56-160.33,436.6-426.73,436.6h-305.86Zm298.46-155.4c166.5,0,254.06-86.33,254.06-281.2s-87.56-279.96-251.6-281.2h-120.86v562.39h118.4Z"/>
    </g>
  </g>
</svg>